<?xml version="1.0" encoding="utf-8"?>
<!-- Generator: Adobe Illustrator 26.0.1, SVG Export Plug-In . SVG Version: 6.00 Build 0)  -->
<svg version="1.1" id="Layer_1" xmlns="http://www.w3.org/2000/svg" xmlns:xlink="http://www.w3.org/1999/xlink" x="0px" y="0px"
	 viewBox="0 0 841.9 595.3" style="enable-background:new 0 0 841.9 595.3;" xml:space="preserve">
<style type="text/css">
	.st0{clip-path:url(#SVGID_00000132049614219491330980000004979240688506043046_);}
	.st1{clip-path:url(#SVGID_00000145034173735893114330000009300813294953318798_);}
	.st2{clip-path:url(#SVGID_00000109725749064288432640000002368930315942026649_);}
	.st3{clip-path:url(#SVGID_00000016044946432996516510000012691566144586215093_);}
	.st4{fill:#FFA20D;}
	.st5{clip-path:url(#SVGID_00000141443608019977876510000016510401068083189415_);}
	.st6{clip-path:url(#SVGID_00000096048790567337653860000004360567785936387722_);}
	.st7{clip-path:url(#SVGID_00000042728485654431052150000016339357241448286889_);}
	.st8{clip-path:url(#SVGID_00000005979069342156465130000013458782096929222809_);}
	.st9{clip-path:url(#SVGID_00000146496206229046489590000015861583948665273242_);}
	.st10{clip-path:url(#SVGID_00000026162122326823371890000011937783999152135060_);}
	.st11{clip-path:url(#SVGID_00000109708307274283842330000016203451403047553176_);}
	.st12{clip-path:url(#SVGID_00000123406168022445949730000001304749693908576642_);}
</style>
<g id="Layer_2_00000023274988235608824460000017928847421178765474_">
	<g id="Layer_1-2">
		<g>
			<defs>
				<path id="SVGID_1_" d="M311.7,304.6c-27.3-17.8-49.2-41.9-63.8-70c-24.8-47.4-26.4-102.8-4.1-151.4l1.9-4.1h94.1l-8.9,10.9
					c-15.2,18.4-23.5,41-23.6,64.3c0.1,16.5,4.1,32.7,11.9,47.4c19.2,36.9,56.5,59.2,100,59.8v13.6c-35.2,0.2-69.6,10.3-98.6,29
					l-0.8,0.5l-4,2.5L311.7,304.6z"/>
			</defs>
			<clipPath id="SVGID_00000103947499205524114390000009236915771107311008_">
				<use xlink:href="#SVGID_1_"  style="overflow:visible;"/>
			</clipPath>
			<g style="clip-path:url(#SVGID_00000103947499205524114390000009236915771107311008_);">
				<g>
					<defs>
						<rect id="SVGID_00000070111280074077215990000005159432611423013284_" x="222.1" y="73.5" width="203.1" height="239.4"/>
					</defs>
					<clipPath id="SVGID_00000069364222293783177640000018066782930728566153_">
						<use xlink:href="#SVGID_00000070111280074077215990000005159432611423013284_"  style="overflow:visible;"/>
					</clipPath>
					<g style="clip-path:url(#SVGID_00000069364222293783177640000018066782930728566153_);">
						
							<image style="overflow:visible;enable-background:new    ;" width="351" height="439" xlink:href="237B7924B020F449.png"  transform="matrix(0.5802 0 0 0.5463 221.6919 73.282)">
						</image>
					</g>
				</g>
			</g>
		</g>
		<g>
			<defs>
				<path id="SVGID_00000075879872158610700050000016545228505633937537_" d="M419,268.4c-36.7,0.2-72.4,10.7-102.7,30.2
					c-0.2,0.1-0.4,0.3-0.6,0.4c-26.3-17.1-47.4-40.3-61.4-67.4c-24-45.7-25.4-98.9-4-145.7h74.7c-16.2,19.5-25,43.6-25.1,68.4
					c0.1,17.5,4.4,34.7,12.6,50.4C333.1,244,372.7,267.8,419,268.4z"/>
			</defs>
			<clipPath id="SVGID_00000116229883882726948170000012146567703008054421_">
				<use xlink:href="#SVGID_00000075879872158610700050000016545228505633937537_"  style="overflow:visible;"/>
			</clipPath>
			<g style="clip-path:url(#SVGID_00000116229883882726948170000012146567703008054421_);">
				<g>
					<defs>
						<rect id="SVGID_00000134236860226516245710000002554915751173133959_" x="229.3" y="80.3" width="195.8" height="224.4"/>
					</defs>
					<clipPath id="SVGID_00000106829910048770397740000015837277984883029400_">
						<use xlink:href="#SVGID_00000134236860226516245710000002554915751173133959_"  style="overflow:visible;"/>
					</clipPath>
					<g style="clip-path:url(#SVGID_00000106829910048770397740000015837277984883029400_);">
						
							<image style="overflow:visible;enable-background:new    ;" width="338" height="412" xlink:href="237B7924B020F44B.png"  transform="matrix(0.5802 0 0 0.5463 229.2349 79.8373)">
						</image>
					</g>
				</g>
			</g>
		</g>
		<path class="st4" d="M419,275.2l-0.8-13.5c0.9-0.1,1.9-0.1,2.8-0.1c1,0,1.9,0,2.9,0.1l-0.8,13.5H419z"/>
		<path class="st4" d="M421.2,268.3H421c-0.7,0-1.3,0-2,0.1h4.1C422.5,268.4,421.9,268.3,421.2,268.3z"/>
		<g>
			<defs>
				<path id="SVGID_00000072272951144117118120000014619467755226275479_" d="M504.9,516.1l8.3-10.8c14-17.9,21.6-39.5,21.6-61.8
					c0-16.5-4.1-32.7-11.8-47.4c-19.2-36.9-56.5-59.2-99.9-59.8v-13.6c35.2-0.2,69.6-10.3,98.7-29l0.8-0.5l1.5-0.6l3.4-1l2.9,1.9
					c74.6,48.6,103.4,139.4,69.1,218.5l-1.8,4.2L504.9,516.1z"/>
			</defs>
			<clipPath id="SVGID_00000036959042107422264120000005540059733717547946_">
				<use xlink:href="#SVGID_00000072272951144117118120000014619467755226275479_"  style="overflow:visible;"/>
			</clipPath>
			<g style="clip-path:url(#SVGID_00000036959042107422264120000005540059733717547946_);">
				<g>
					<defs>
						<rect id="SVGID_00000040571956093233720570000017182441208896804993_" x="417" y="285.8" width="203" height="235.9"/>
					</defs>
					<clipPath id="SVGID_00000124843200398369554780000017438051090067781282_">
						<use xlink:href="#SVGID_00000040571956093233720570000017182441208896804993_"  style="overflow:visible;"/>
					</clipPath>
					<g style="clip-path:url(#SVGID_00000124843200398369554780000017438051090067781282_);">
						
							<image style="overflow:visible;enable-background:new    ;" width="351" height="432" xlink:href="237B7924B020F44E.png"  transform="matrix(0.5802 0 0 0.5463 416.65 285.7854)">
						</image>
					</g>
				</g>
			</g>
		</g>
		<g>
			<defs>
				<path id="SVGID_00000160906973019311090510000008502401841178412416_" d="M592.9,509.3h-73.8c14.9-19.1,22.9-42.1,23-65.7
					c-0.1-17.5-4.4-34.7-12.6-50.4c-20.4-39.3-60-63-106.4-63.6c36.6-0.2,72.4-10.7,102.7-30.1c0.2-0.1,0.4-0.3,0.6-0.3
					c71.8,46.8,99.4,134.2,66.5,210.3L592.9,509.3z"/>
			</defs>
			<clipPath id="SVGID_00000088100456491758519290000016457768769028914862_">
				<use xlink:href="#SVGID_00000160906973019311090510000008502401841178412416_"  style="overflow:visible;"/>
			</clipPath>
			<g style="clip-path:url(#SVGID_00000088100456491758519290000016457768769028914862_);">
				<g>
					<defs>
						<rect id="SVGID_00000024717622348641720850000013912705088776580262_" x="417.1" y="293.3" width="195.7" height="221.7"/>
					</defs>
					<clipPath id="SVGID_00000025419292579363391840000006048102261475364019_">
						<use xlink:href="#SVGID_00000024717622348641720850000013912705088776580262_"  style="overflow:visible;"/>
					</clipPath>
					<g style="clip-path:url(#SVGID_00000025419292579363391840000006048102261475364019_);">
						
							<image style="overflow:visible;enable-background:new    ;" width="339" height="407" xlink:href="237B7924B020F44F.png"  transform="matrix(0.5802 0 0 0.5463 416.65 292.8871)">
						</image>
					</g>
				</g>
			</g>
		</g>
		<g>
			<defs>
				<path id="SVGID_00000125591327021199051480000009832350416219828148_" d="M244.5,516.1l-1.9-4.2c-9.6-21.7-14.5-45-14.5-68.5
					c0.2-59.8,31.4-115.8,83.7-149.9l0.7-0.5c31.4-20.2,68.5-31.1,106.5-31.3h4.2c20.6-0.2,40.7-5.7,58.2-15.9
					c18-10.6,32.5-25.9,41.7-44c18.8-36.3,15.1-77.2-10-109.4l-9.6-13l15.8-0.1h77.2l1.9,4.1c10.4,22.5,15.7,46.8,15.7,71.3
					c0,27.7-6.7,55.1-19.7,79.9c-14.6,28.1-36.5,52.2-63.9,70l-0.9,0.6h-0.2c-31.4,20-68.3,30.8-106.2,31.1H419
					c-42.7,0.2-81.6,23.5-99.8,59.9c-18.7,36.1-15,76.9,9.7,109.1l8.3,10.8L244.5,516.1z"/>
			</defs>
			<clipPath id="SVGID_00000049937617879817003680000000596624342395338388_">
				<use xlink:href="#SVGID_00000125591327021199051480000009832350416219828148_"  style="overflow:visible;"/>
			</clipPath>
			<g style="clip-path:url(#SVGID_00000049937617879817003680000000596624342395338388_);">
				<g>
					<defs>
						<rect id="SVGID_00000010277144800641962020000010396765788989623451_" x="222" y="73.5" width="398.1" height="448.2"/>
					</defs>
					<clipPath id="SVGID_00000173852319463610273630000012061281732002269597_">
						<use xlink:href="#SVGID_00000010277144800641962020000010396765788989623451_"  style="overflow:visible;"/>
					</clipPath>
					<g style="clip-path:url(#SVGID_00000173852319463610273630000012061281732002269597_);">
						
							<image style="overflow:visible;enable-background:new    ;" width="687" height="821" xlink:href="237B7924B020F44A.png"  transform="matrix(0.5802 0 0 0.5463 221.6919 73.282)">
						</image>
					</g>
				</g>
			</g>
		</g>
		<g>
			<defs>
				<path id="SVGID_00000124160299615312656560000003891819272771056058_" d="M606.9,154.6c-0.2,57.6-30.2,111.5-80.5,144.4
					c-0.2,0.1-0.4,0.2-0.6,0.3c-30.3,19.4-66,29.9-102.7,30.1H419c-45.5,0.2-86.9,25-106.4,63.7c-20,38.6-16.1,81.6,10.4,116.1
					h-73.7c-9.3-20.9-14-43.3-14-66c0.1-57.6,30.2-111.5,80.5-144.3c0.2-0.1,0.4-0.3,0.6-0.4c30.2-19.5,66-30,102.7-30.2h4.1
					c45.5-0.2,86.9-25,106.4-63.7c20.1-38.7,16.1-81.9-10.7-116.4l2.9-2.2h69.9C601.7,107.7,606.8,131,606.9,154.6z"/>
			</defs>
			<clipPath id="SVGID_00000117649142328833135140000010758861297274234524_">
				<use xlink:href="#SVGID_00000124160299615312656560000003891819272771056058_"  style="overflow:visible;"/>
			</clipPath>
			<g style="clip-path:url(#SVGID_00000117649142328833135140000010758861297274234524_);">
				<g>
					<defs>
						<rect id="SVGID_00000062184710321753264320000001429073165937450416_" x="229.2" y="80.3" width="383.7" height="434.7"/>
					</defs>
					<clipPath id="SVGID_00000028302203141314624800000018159067082588662175_">
						<use xlink:href="#SVGID_00000062184710321753264320000001429073165937450416_"  style="overflow:visible;"/>
					</clipPath>
					<g style="clip-path:url(#SVGID_00000028302203141314624800000018159067082588662175_);">
						
							<image style="overflow:visible;enable-background:new    ;" width="663" height="797" xlink:href="237B7924B020F445.png"  transform="matrix(0.5802 0 0 0.5463 228.6547 79.8373)">
						</image>
					</g>
				</g>
			</g>
		</g>
	</g>
</g>
</svg>
